<?xml version="1.0" encoding="UTF-8" standalone="no"?>
<!DOCTYPE svg PUBLIC "-//W3C//DTD SVG 1.1//EN" "http://www.w3.org/Graphics/SVG/1.1/DTD/svg11.dtd">
<svg width="100%" height="100%" viewBox="0 0 1080 736" version="1.1" xmlns="http://www.w3.org/2000/svg" xmlns:xlink="http://www.w3.org/1999/xlink" xml:space="preserve" xmlns:serif="http://www.serif.com/" style="fill-rule:evenodd;clip-rule:evenodd;stroke-linejoin:round;stroke-miterlimit:2;">
    <g transform="matrix(1,0,0,1,-2379.25,-175.941)">
        <g transform="matrix(1,0,0,1,1231.77,3.71076)">
            <g transform="matrix(1.0783,0,0,1.0783,-89.8528,7.25525)">
                <g transform="matrix(0.876102,0,0,0.876102,317.161,-182.708)">
                    <path d="M1912.41,866.229L1512.8,866.229C1379.5,866.229 1271.27,758.005 1271.27,624.704C1271.27,491.402 1379.5,383.178 1512.8,383.178C1564.47,383.178 1612.37,399.437 1651.65,427.11C1676.27,414.306 1704.23,407.068 1733.87,407.068C1805.36,407.068 1867.1,449.177 1895.6,509.926C1901.14,509.408 1906.75,509.143 1912.41,509.143C2010.95,509.143 2090.96,589.146 2090.96,687.686C2090.96,786.227 2010.95,866.229 1912.41,866.229Z" style="fill:url(#_Linear1);"/>
                </g>
                <g transform="matrix(1.2219,0,0,1.2219,-405.892,-223.327)">
                    <path d="M1912.41,866.229L1512.8,866.229C1379.5,866.229 1271.27,758.005 1271.27,624.704C1271.27,491.402 1379.5,383.178 1512.8,383.178C1564.47,383.178 1612.37,399.437 1651.65,427.11C1676.27,414.306 1704.23,407.068 1733.87,407.068C1805.36,407.068 1867.1,449.177 1895.6,509.926C1901.14,509.408 1906.75,509.143 1912.41,509.143C2010.95,509.143 2090.96,589.146 2090.96,687.686C2090.96,786.227 2010.95,866.229 1912.41,866.229Z" style="fill:url(#_Linear2);"/>
                </g>
            </g>
        </g>
    </g>
    <defs>
        <linearGradient id="_Linear1" x1="0" y1="0" x2="1" y2="0" gradientUnits="userSpaceOnUse" gradientTransform="matrix(819.683,0,0,483.052,1271.27,624.704)"><stop offset="0" style="stop-color:rgb(93,94,98);stop-opacity:1"/><stop offset="1" style="stop-color:rgb(217,217,217);stop-opacity:1"/></linearGradient>
        <linearGradient id="_Linear2" x1="0" y1="0" x2="1" y2="0" gradientUnits="userSpaceOnUse" gradientTransform="matrix(819.683,0,0,483.052,1271.27,624.704)"><stop offset="0" style="stop-color:rgb(152,154,158);stop-opacity:1"/><stop offset="1" style="stop-color:white;stop-opacity:1"/></linearGradient>
    </defs>
</svg>
