<?xml version="1.0" encoding="UTF-8" standalone="no"?>
<!DOCTYPE svg PUBLIC "-//W3C//DTD SVG 1.1//EN" "http://www.w3.org/Graphics/SVG/1.1/DTD/svg11.dtd">
<svg width="100%" height="100%" viewBox="0 0 933 1081" version="1.1" xmlns="http://www.w3.org/2000/svg" xmlns:xlink="http://www.w3.org/1999/xlink" xml:space="preserve" xmlns:serif="http://www.serif.com/" style="fill-rule:evenodd;clip-rule:evenodd;stroke-linejoin:round;stroke-miterlimit:2;">
    <g transform="matrix(1,0,0,1,-8276.84,-3.71076)">
        <g transform="matrix(1,0,0,1,7055.39,3.71076)">
            <g transform="matrix(1.53146,-1.06391e-34,0,1.53146,-896.833,-446.159)">
                <g transform="matrix(0.497547,0,0,0.497547,1514.22,141.258)">
                    <circle cx="536.873" cy="627.915" r="326.293" style="fill:url(#_Linear1);"/>
                </g>
                <g transform="matrix(0.704683,0,0,0.704683,498.342,305.416)">
                    <g transform="matrix(1.05366,0,0,1.05366,-83.8435,-268.949)">
                        <path d="M1912.41,866.229L1512.8,866.229C1379.5,866.229 1271.27,758.005 1271.27,624.704C1271.27,491.402 1379.5,383.178 1512.8,383.178C1564.47,383.178 1612.37,399.437 1651.65,427.11C1676.27,414.306 1704.23,407.068 1733.87,407.068C1805.36,407.068 1867.1,449.177 1895.6,509.926C1901.14,509.408 1906.75,509.143 1912.41,509.143C2010.95,509.143 2090.96,589.146 2090.96,687.686C2090.96,786.227 2010.95,866.229 1912.41,866.229Z" style="fill:url(#_Linear2);"/>
                    </g>
                    <g transform="matrix(1.08133,0,0,1.08133,-164.6,-127.76)">
                        <g transform="matrix(1,0,0,1,-1119.09,-3.5583)">
                            <path d="M2645.1,735.551C2645.1,735.551 2714.6,831.453 2714.6,869.81C2714.6,908.167 2683.46,939.308 2645.1,939.308C2606.74,939.308 2575.6,908.167 2575.6,869.81C2575.6,831.453 2645.1,735.551 2645.1,735.551Z" style="fill:rgb(109,184,245);"/>
                        </g>
                        <g transform="matrix(1,0,0,1,-932.314,86.4417)">
                            <path d="M2645.1,735.551C2645.1,735.551 2714.6,831.453 2714.6,869.81C2714.6,908.167 2683.46,939.308 2645.1,939.308C2606.74,939.308 2575.6,908.167 2575.6,869.81C2575.6,831.453 2645.1,735.551 2645.1,735.551Z" style="fill:rgb(109,184,245);"/>
                        </g>
                        <g transform="matrix(1,0,0,1,-745.538,-3.5583)">
                            <path d="M2645.1,735.551C2645.1,735.551 2714.6,831.453 2714.6,869.81C2714.6,908.167 2683.46,939.308 2645.1,939.308C2606.74,939.308 2575.6,908.167 2575.6,869.81C2575.6,831.453 2645.1,735.551 2645.1,735.551Z" style="fill:rgb(109,184,245);"/>
                        </g>
                    </g>
                </g>
            </g>
        </g>
    </g>
    <defs>
        <linearGradient id="_Linear1" x1="0" y1="0" x2="1" y2="0" gradientUnits="userSpaceOnUse" gradientTransform="matrix(652.587,0,0,652.587,210.579,627.915)"><stop offset="0" style="stop-color:rgb(254,197,1);stop-opacity:1"/><stop offset="1" style="stop-color:rgb(255,251,123);stop-opacity:1"/></linearGradient>
        <linearGradient id="_Linear2" x1="0" y1="0" x2="1" y2="0" gradientUnits="userSpaceOnUse" gradientTransform="matrix(819.683,0,0,483.052,1271.27,624.704)"><stop offset="0" style="stop-color:rgb(128,133,144);stop-opacity:1"/><stop offset="1" style="stop-color:rgb(207,214,221);stop-opacity:1"/></linearGradient>
    </defs>
</svg>
