<?xml version="1.0" encoding="UTF-8" standalone="no"?>
<!DOCTYPE svg PUBLIC "-//W3C//DTD SVG 1.1//EN" "http://www.w3.org/Graphics/SVG/1.1/DTD/svg11.dtd">
<svg width="100%" height="100%" viewBox="0 0 1117 1117" version="1.1" xmlns="http://www.w3.org/2000/svg" xmlns:xlink="http://www.w3.org/1999/xlink" xml:space="preserve" xmlns:serif="http://www.serif.com/" style="fill-rule:evenodd;clip-rule:evenodd;stroke-linecap:round;stroke-linejoin:round;stroke-miterlimit:1.5;">
    <g transform="matrix(1,0,0,1,-1170.15,13.7902)">
        <g transform="matrix(1,0,0,1,1188.33,4.38806)">
            <g transform="matrix(1.24651,0,0,1.24651,-133.116,-123.723)">
                <g>
                    <g transform="matrix(1,0,0,1,-3144.84,-2081.17)">
                        <path d="M3684.84,2390.32L3530.46,2235.94" style="fill:none;stroke:rgb(235,235,235);stroke-width:29.17px;"/>
                    </g>
                    <g transform="matrix(-1,0,0,1,4224.84,-2081.17)">
                        <path d="M3684.84,2390.32L3530.46,2235.94" style="fill:none;stroke:rgb(235,235,235);stroke-width:29.17px;"/>
                    </g>
                </g>
                <g transform="matrix(0.707107,0.707107,-0.707107,0.707107,534.672,-225.882)">
                    <g transform="matrix(1,0,0,1,-3144.84,-2081.17)">
                        <path d="M3684.84,2390.32L3530.46,2235.94" style="fill:none;stroke:rgb(235,235,235);stroke-width:29.17px;"/>
                    </g>
                    <g transform="matrix(-1,0,0,1,4224.84,-2081.17)">
                        <path d="M3684.84,2390.32L3530.46,2235.94" style="fill:none;stroke:rgb(235,235,235);stroke-width:29.17px;"/>
                    </g>
                </g>
                <g transform="matrix(6.12323e-17,-1,1,6.12323e-17,7.53536,1072.46)">
                    <g transform="matrix(1,0,0,1,-3144.84,-2081.17)">
                        <path d="M3684.84,2390.32L3530.46,2235.94" style="fill:none;stroke:rgb(235,235,235);stroke-width:29.17px;"/>
                    </g>
                    <g transform="matrix(-1,0,0,1,4224.84,-2081.17)">
                        <path d="M3684.84,2390.32L3530.46,2235.94" style="fill:none;stroke:rgb(235,235,235);stroke-width:29.17px;"/>
                    </g>
                </g>
                <g transform="matrix(0.707107,-0.707107,0.707107,0.707107,-218.347,537.793)">
                    <g transform="matrix(1,0,0,1,-3144.84,-2081.17)">
                        <path d="M3684.84,2390.32L3530.46,2235.94" style="fill:none;stroke:rgb(235,235,235);stroke-width:29.17px;"/>
                    </g>
                    <g transform="matrix(-1,0,0,1,4224.84,-2081.17)">
                        <path d="M3684.84,2390.32L3530.46,2235.94" style="fill:none;stroke:rgb(235,235,235);stroke-width:29.17px;"/>
                    </g>
                </g>
                <g transform="matrix(1,0,0,-1,9.09495e-13,1064.93)">
                    <g transform="matrix(1,0,0,1,-3144.84,-2081.17)">
                        <path d="M3684.84,2390.32L3530.46,2235.94" style="fill:none;stroke:rgb(235,235,235);stroke-width:29.17px;"/>
                    </g>
                    <g transform="matrix(-1,0,0,1,4224.84,-2081.17)">
                        <path d="M3684.84,2390.32L3530.46,2235.94" style="fill:none;stroke:rgb(235,235,235);stroke-width:29.17px;"/>
                    </g>
                </g>
                <g transform="matrix(0.707107,0.707107,0.707107,-0.707107,-218.347,527.136)">
                    <g transform="matrix(1,0,0,1,-3144.84,-2081.17)">
                        <path d="M3684.84,2390.32L3530.46,2235.94" style="fill:none;stroke:rgb(235,235,235);stroke-width:29.17px;"/>
                    </g>
                    <g transform="matrix(-1,0,0,1,4224.84,-2081.17)">
                        <path d="M3684.84,2390.32L3530.46,2235.94" style="fill:none;stroke:rgb(235,235,235);stroke-width:29.17px;"/>
                    </g>
                </g>
                <g transform="matrix(6.12323e-17,-1,-1,-6.12323e-17,1072.46,1072.46)">
                    <g transform="matrix(1,0,0,1,-3144.84,-2081.17)">
                        <path d="M3684.84,2390.32L3530.46,2235.94" style="fill:none;stroke:rgb(235,235,235);stroke-width:29.17px;"/>
                    </g>
                    <g transform="matrix(-1,0,0,1,4224.84,-2081.17)">
                        <path d="M3684.84,2390.32L3530.46,2235.94" style="fill:none;stroke:rgb(235,235,235);stroke-width:29.17px;"/>
                    </g>
                </g>
                <g transform="matrix(0.707107,-0.707107,-0.707107,-0.707107,534.672,1290.81)">
                    <g transform="matrix(1,0,0,1,-3144.84,-2081.17)">
                        <path d="M3684.84,2390.32L3530.46,2235.94" style="fill:none;stroke:rgb(235,235,235);stroke-width:29.17px;"/>
                    </g>
                    <g transform="matrix(-1,0,0,1,4224.84,-2081.17)">
                        <path d="M3684.84,2390.32L3530.46,2235.94" style="fill:none;stroke:rgb(235,235,235);stroke-width:29.17px;"/>
                    </g>
                </g>
                <g transform="matrix(1,0,0,1,-3144.84,-2081.17)">
                    <path d="M3684.84,2180.42L3684.84,3046.84" style="fill:none;stroke:rgb(235,235,235);stroke-width:29.17px;"/>
                </g>
                <g transform="matrix(0.707107,0.707107,-0.707107,0.707107,-217.458,-3921.23)">
                    <path d="M3684.84,2180.42L3684.84,3046.84" style="fill:none;stroke:rgb(235,235,235);stroke-width:29.17px;"/>
                </g>
                <g transform="matrix(6.12323e-17,1,-1,6.12323e-17,3153.63,-3152.37)">
                    <path d="M3684.84,2180.42L3684.84,3046.84" style="fill:none;stroke:rgb(235,235,235);stroke-width:29.17px;"/>
                </g>
                <g transform="matrix(-0.707107,0.707107,-0.707107,-0.707107,4993.69,-224.993)">
                    <path d="M3684.84,2180.42L3684.84,3046.84" style="fill:none;stroke:rgb(235,235,235);stroke-width:29.17px;"/>
                </g>
            </g>
        </g>
    </g>
</svg>
