<?xml version="1.0" encoding="UTF-8" standalone="no"?>
<!DOCTYPE svg PUBLIC "-//W3C//DTD SVG 1.1//EN" "http://www.w3.org/Graphics/SVG/1.1/DTD/svg11.dtd">
<svg width="100%" height="100%" viewBox="0 0 463 273" version="1.1" xmlns="http://www.w3.org/2000/svg" xmlns:xlink="http://www.w3.org/1999/xlink" xml:space="preserve" xmlns:serif="http://www.serif.com/" style="fill-rule:evenodd;clip-rule:evenodd;stroke-linejoin:round;stroke-miterlimit:2;">
    <g transform="matrix(1,0,0,1,0,-95.3235)">
        <g transform="matrix(1.70531,0,0,1.70531,-149.515,-341.092)">
            <path d="M319.255,367.713L239.4,367.713C234.986,367.713 231.415,364.137 231.415,359.727C231.415,355.318 234.986,351.742 239.4,351.742L319.255,351.742C323.665,351.742 327.24,355.318 327.24,359.727C327.24,364.137 323.665,367.713 319.255,367.713Z" style="fill:url(#_Linear1);fill-rule:nonzero;"/>
            <path d="M159.545,367.713L95.662,367.713C91.248,367.713 87.676,364.137 87.676,359.727C87.676,355.318 91.248,351.742 95.662,351.742L159.545,351.742C163.955,351.742 167.531,355.318 167.531,359.727C167.531,364.137 163.955,367.713 159.545,367.713Z" style="fill:url(#_Linear2);fill-rule:nonzero;"/>
            <path d="M207.458,367.713L191.487,367.713C187.073,367.713 183.502,364.137 183.502,359.727C183.502,355.318 187.073,351.742 191.487,351.742L207.458,351.742C211.868,351.742 215.444,355.318 215.444,359.727C215.444,364.137 211.868,367.713 207.458,367.713Z" style="fill:url(#_Linear3);fill-rule:nonzero;"/>
            <path d="M223.429,415.626L127.604,415.626C123.19,415.626 119.618,412.05 119.618,407.64C119.618,403.23 123.19,399.655 127.604,399.655L223.429,399.655C227.839,399.655 231.415,403.23 231.415,407.64C231.415,412.05 227.839,415.626 223.429,415.626Z" style="fill:url(#_Linear4);fill-rule:nonzero;"/>
            <path d="M351.196,415.626L319.255,415.626C314.841,415.626 311.269,412.05 311.269,407.64C311.269,403.23 314.841,399.655 319.255,399.655L351.196,399.655C355.606,399.655 359.182,403.23 359.182,407.64C359.182,412.05 355.606,415.626 351.196,415.626Z" style="fill:url(#_Linear5);fill-rule:nonzero;"/>
            <path d="M287.313,415.626L255.371,415.626C250.957,415.626 247.385,412.05 247.385,407.64C247.385,403.23 250.957,399.655 255.371,399.655L287.313,399.655C291.723,399.655 295.298,403.23 295.298,407.64C295.298,412.05 291.723,415.626 287.313,415.626Z" style="fill:url(#_Linear6);fill-rule:nonzero;"/>
            <path d="M319.255,271.887L239.4,271.887C234.986,271.887 231.415,268.312 231.415,263.902C231.415,259.492 234.986,255.916 239.4,255.916L319.255,255.916C323.665,255.916 327.24,259.492 327.24,263.902C327.24,268.312 323.665,271.887 319.255,271.887Z" style="fill:url(#_Linear7);fill-rule:nonzero;"/>
            <path d="M159.545,271.887L95.662,271.887C91.248,271.887 87.676,268.312 87.676,263.902C87.676,259.492 91.248,255.916 95.662,255.916L159.545,255.916C163.955,255.916 167.531,259.492 167.531,263.902C167.531,268.312 163.955,271.887 159.545,271.887Z" style="fill:url(#_Linear8);fill-rule:nonzero;"/>
            <path d="M207.458,271.887L191.487,271.887C187.073,271.887 183.502,268.312 183.502,263.902C183.502,259.492 187.073,255.916 191.487,255.916L207.458,255.916C211.868,255.916 215.444,259.492 215.444,263.902C215.444,268.312 211.868,271.887 207.458,271.887Z" style="fill:url(#_Linear9);fill-rule:nonzero;"/>
            <path d="M223.429,319.8L127.604,319.8C123.19,319.8 119.618,316.225 119.618,311.815C119.618,307.405 123.19,303.829 127.604,303.829L223.429,303.829C227.839,303.829 231.415,307.405 231.415,311.815C231.415,316.225 227.839,319.8 223.429,319.8Z" style="fill:url(#_Linear10);fill-rule:nonzero;"/>
            <path d="M351.196,319.8L319.255,319.8C314.841,319.8 311.269,316.225 311.269,311.815C311.269,307.405 314.841,303.829 319.255,303.829L351.196,303.829C355.606,303.829 359.182,307.405 359.182,311.815C359.182,316.225 355.606,319.8 351.196,319.8Z" style="fill:url(#_Linear11);fill-rule:nonzero;"/>
            <path d="M287.313,319.8L255.371,319.8C250.957,319.8 247.385,316.225 247.385,311.815C247.385,307.405 250.957,303.829 255.371,303.829L287.313,303.829C291.723,303.829 295.298,307.405 295.298,311.815C295.298,316.225 291.723,319.8 287.313,319.8Z" style="fill:url(#_Linear12);fill-rule:nonzero;"/>
        </g>
    </g>
    <defs>
        <linearGradient id="_Linear1" x1="0" y1="0" x2="1" y2="0" gradientUnits="userSpaceOnUse" gradientTransform="matrix(271.506,0,0,159.709,87.6763,335.771)"><stop offset="0" style="stop-color:rgb(112,149,184);stop-opacity:1"/><stop offset="1" style="stop-color:rgb(185,203,220);stop-opacity:1"/></linearGradient>
        <linearGradient id="_Linear2" x1="0" y1="0" x2="1" y2="0" gradientUnits="userSpaceOnUse" gradientTransform="matrix(271.506,0,0,159.709,87.6763,335.771)"><stop offset="0" style="stop-color:rgb(112,149,184);stop-opacity:1"/><stop offset="1" style="stop-color:rgb(185,203,220);stop-opacity:1"/></linearGradient>
        <linearGradient id="_Linear3" x1="0" y1="0" x2="1" y2="0" gradientUnits="userSpaceOnUse" gradientTransform="matrix(271.506,0,0,159.709,87.6763,335.771)"><stop offset="0" style="stop-color:rgb(112,149,184);stop-opacity:1"/><stop offset="1" style="stop-color:rgb(185,203,220);stop-opacity:1"/></linearGradient>
        <linearGradient id="_Linear4" x1="0" y1="0" x2="1" y2="0" gradientUnits="userSpaceOnUse" gradientTransform="matrix(271.506,0,0,159.709,87.6763,335.771)"><stop offset="0" style="stop-color:rgb(112,149,184);stop-opacity:1"/><stop offset="1" style="stop-color:rgb(185,203,220);stop-opacity:1"/></linearGradient>
        <linearGradient id="_Linear5" x1="0" y1="0" x2="1" y2="0" gradientUnits="userSpaceOnUse" gradientTransform="matrix(271.506,0,0,159.709,87.6763,335.771)"><stop offset="0" style="stop-color:rgb(112,149,184);stop-opacity:1"/><stop offset="1" style="stop-color:rgb(185,203,220);stop-opacity:1"/></linearGradient>
        <linearGradient id="_Linear6" x1="0" y1="0" x2="1" y2="0" gradientUnits="userSpaceOnUse" gradientTransform="matrix(271.506,0,0,159.709,87.6763,335.771)"><stop offset="0" style="stop-color:rgb(112,149,184);stop-opacity:1"/><stop offset="1" style="stop-color:rgb(185,203,220);stop-opacity:1"/></linearGradient>
        <linearGradient id="_Linear7" x1="0" y1="0" x2="1" y2="0" gradientUnits="userSpaceOnUse" gradientTransform="matrix(271.506,0,0,159.709,87.6763,335.771)"><stop offset="0" style="stop-color:rgb(112,149,184);stop-opacity:1"/><stop offset="1" style="stop-color:rgb(185,203,220);stop-opacity:1"/></linearGradient>
        <linearGradient id="_Linear8" x1="0" y1="0" x2="1" y2="0" gradientUnits="userSpaceOnUse" gradientTransform="matrix(271.506,0,0,159.709,87.6763,335.771)"><stop offset="0" style="stop-color:rgb(112,149,184);stop-opacity:1"/><stop offset="1" style="stop-color:rgb(185,203,220);stop-opacity:1"/></linearGradient>
        <linearGradient id="_Linear9" x1="0" y1="0" x2="1" y2="0" gradientUnits="userSpaceOnUse" gradientTransform="matrix(271.506,0,0,159.709,87.6763,335.771)"><stop offset="0" style="stop-color:rgb(112,149,184);stop-opacity:1"/><stop offset="1" style="stop-color:rgb(185,203,220);stop-opacity:1"/></linearGradient>
        <linearGradient id="_Linear10" x1="0" y1="0" x2="1" y2="0" gradientUnits="userSpaceOnUse" gradientTransform="matrix(271.506,0,0,159.709,87.6763,335.771)"><stop offset="0" style="stop-color:rgb(112,149,184);stop-opacity:1"/><stop offset="1" style="stop-color:rgb(185,203,220);stop-opacity:1"/></linearGradient>
        <linearGradient id="_Linear11" x1="0" y1="0" x2="1" y2="0" gradientUnits="userSpaceOnUse" gradientTransform="matrix(271.506,0,0,159.709,87.6763,335.771)"><stop offset="0" style="stop-color:rgb(112,149,184);stop-opacity:1"/><stop offset="1" style="stop-color:rgb(185,203,220);stop-opacity:1"/></linearGradient>
        <linearGradient id="_Linear12" x1="0" y1="0" x2="1" y2="0" gradientUnits="userSpaceOnUse" gradientTransform="matrix(271.506,0,0,159.709,87.6763,335.771)"><stop offset="0" style="stop-color:rgb(112,149,184);stop-opacity:1"/><stop offset="1" style="stop-color:rgb(185,203,220);stop-opacity:1"/></linearGradient>
    </defs>
</svg>
